<?xml version="1.0" encoding="utf-8" standalone="no"?>
<!DOCTYPE svg PUBLIC "-//W3C//DTD SVG 1.1//EN"
  "http://www.w3.org/Graphics/SVG/1.1/DTD/svg11.dtd">
<svg height="576pt" version="1.1" viewBox="0 0 1080 576" width="1080pt" xmlns="http://www.w3.org/2000/svg" xmlns:xlink="http://www.w3.org/1999/xlink">
 <metadata>
  <rdf:RDF xmlns:cc="http://creativecommons.org/ns#" xmlns:dc="http://purl.org/dc/elements/1.1/" xmlns:rdf="http://www.w3.org/1999/02/22-rdf-syntax-ns#">
   <cc:Work>
    <dc:type rdf:resource="http://purl.org/dc/dcmitype/StillImage"/>
    <dc:date>2021-08-29T12:38:03.798522</dc:date>
    <dc:format>image/svg+xml</dc:format>
    <dc:creator>
     <cc:Agent>
      <dc:title>Matplotlib v3.4.3, https://matplotlib.org/</dc:title>
     </cc:Agent>
    </dc:creator>
   </cc:Work>
  </rdf:RDF>
 </metadata>
 <defs>
  <style type="text/css">*{stroke-linecap:butt;stroke-linejoin:round;}</style>
 </defs>
 <g id="figure_1">
  <g id="patch_1">
   <path d="M 0 576 
L 1080 576 
L 1080 0 
L 0 0 
z
" style="fill:#ffffff;"/>
  </g>
  <g id="axes_1">
   <g id="patch_2">
    <path d="M 135 512.64 
L 972 512.64 
L 972 69.12 
L 135 69.12 
z
" style="fill:#ffffff;"/>
   </g>
   <g id="matplotlib.axis_1">
    <g id="xtick_1">
     <g id="line2d_1">
      <defs>
       <path d="M 0 0 
L 0 3.5 
" id="mc1386e1a2f" style="stroke:#000000;stroke-width:0.8;"/>
      </defs>
      <g>
       <use style="stroke:#000000;stroke-width:0.8;" x="173.045455" xlink:href="#mc1386e1a2f" y="512.64"/>
      </g>
     </g>
     <g id="text_1">
      <!-- 0.0 -->
      <g transform="translate(165.093892 527.238438)scale(0.1 -0.1)">
       <defs>
        <path d="M 2034 4250 
Q 1547 4250 1301 3770 
Q 1056 3291 1056 2328 
Q 1056 1369 1301 889 
Q 1547 409 2034 409 
Q 2525 409 2770 889 
Q 3016 1369 3016 2328 
Q 3016 3291 2770 3770 
Q 2525 4250 2034 4250 
z
M 2034 4750 
Q 2819 4750 3233 4129 
Q 3647 3509 3647 2328 
Q 3647 1150 3233 529 
Q 2819 -91 2034 -91 
Q 1250 -91 836 529 
Q 422 1150 422 2328 
Q 422 3509 836 4129 
Q 1250 4750 2034 4750 
z
" id="DejaVuSans-30" transform="scale(0.015625)"/>
        <path d="M 684 794 
L 1344 794 
L 1344 0 
L 684 0 
L 684 794 
z
" id="DejaVuSans-2e" transform="scale(0.015625)"/>
       </defs>
       <use xlink:href="#DejaVuSans-30"/>
       <use x="63.623047" xlink:href="#DejaVuSans-2e"/>
       <use x="95.410156" xlink:href="#DejaVuSans-30"/>
      </g>
     </g>
    </g>
    <g id="xtick_2">
     <g id="line2d_2">
      <g>
       <use style="stroke:#000000;stroke-width:0.8;" x="325.227273" xlink:href="#mc1386e1a2f" y="512.64"/>
      </g>
     </g>
     <g id="text_2">
      <!-- 0.2 -->
      <g transform="translate(317.27571 527.238438)scale(0.1 -0.1)">
       <defs>
        <path d="M 1228 531 
L 3431 531 
L 3431 0 
L 469 0 
L 469 531 
Q 828 903 1448 1529 
Q 2069 2156 2228 2338 
Q 2531 2678 2651 2914 
Q 2772 3150 2772 3378 
Q 2772 3750 2511 3984 
Q 2250 4219 1831 4219 
Q 1534 4219 1204 4116 
Q 875 4013 500 3803 
L 500 4441 
Q 881 4594 1212 4672 
Q 1544 4750 1819 4750 
Q 2544 4750 2975 4387 
Q 3406 4025 3406 3419 
Q 3406 3131 3298 2873 
Q 3191 2616 2906 2266 
Q 2828 2175 2409 1742 
Q 1991 1309 1228 531 
z
" id="DejaVuSans-32" transform="scale(0.015625)"/>
       </defs>
       <use xlink:href="#DejaVuSans-30"/>
       <use x="63.623047" xlink:href="#DejaVuSans-2e"/>
       <use x="95.410156" xlink:href="#DejaVuSans-32"/>
      </g>
     </g>
    </g>
    <g id="xtick_3">
     <g id="line2d_3">
      <g>
       <use style="stroke:#000000;stroke-width:0.8;" x="477.409091" xlink:href="#mc1386e1a2f" y="512.64"/>
      </g>
     </g>
     <g id="text_3">
      <!-- 0.4 -->
      <g transform="translate(469.457528 527.238438)scale(0.1 -0.1)">
       <defs>
        <path d="M 2419 4116 
L 825 1625 
L 2419 1625 
L 2419 4116 
z
M 2253 4666 
L 3047 4666 
L 3047 1625 
L 3713 1625 
L 3713 1100 
L 3047 1100 
L 3047 0 
L 2419 0 
L 2419 1100 
L 313 1100 
L 313 1709 
L 2253 4666 
z
" id="DejaVuSans-34" transform="scale(0.015625)"/>
       </defs>
       <use xlink:href="#DejaVuSans-30"/>
       <use x="63.623047" xlink:href="#DejaVuSans-2e"/>
       <use x="95.410156" xlink:href="#DejaVuSans-34"/>
      </g>
     </g>
    </g>
    <g id="xtick_4">
     <g id="line2d_4">
      <g>
       <use style="stroke:#000000;stroke-width:0.8;" x="629.590909" xlink:href="#mc1386e1a2f" y="512.64"/>
      </g>
     </g>
     <g id="text_4">
      <!-- 0.6 -->
      <g transform="translate(621.639347 527.238438)scale(0.1 -0.1)">
       <defs>
        <path d="M 2113 2584 
Q 1688 2584 1439 2293 
Q 1191 2003 1191 1497 
Q 1191 994 1439 701 
Q 1688 409 2113 409 
Q 2538 409 2786 701 
Q 3034 994 3034 1497 
Q 3034 2003 2786 2293 
Q 2538 2584 2113 2584 
z
M 3366 4563 
L 3366 3988 
Q 3128 4100 2886 4159 
Q 2644 4219 2406 4219 
Q 1781 4219 1451 3797 
Q 1122 3375 1075 2522 
Q 1259 2794 1537 2939 
Q 1816 3084 2150 3084 
Q 2853 3084 3261 2657 
Q 3669 2231 3669 1497 
Q 3669 778 3244 343 
Q 2819 -91 2113 -91 
Q 1303 -91 875 529 
Q 447 1150 447 2328 
Q 447 3434 972 4092 
Q 1497 4750 2381 4750 
Q 2619 4750 2861 4703 
Q 3103 4656 3366 4563 
z
" id="DejaVuSans-36" transform="scale(0.015625)"/>
       </defs>
       <use xlink:href="#DejaVuSans-30"/>
       <use x="63.623047" xlink:href="#DejaVuSans-2e"/>
       <use x="95.410156" xlink:href="#DejaVuSans-36"/>
      </g>
     </g>
    </g>
    <g id="xtick_5">
     <g id="line2d_5">
      <g>
       <use style="stroke:#000000;stroke-width:0.8;" x="781.772727" xlink:href="#mc1386e1a2f" y="512.64"/>
      </g>
     </g>
     <g id="text_5">
      <!-- 0.8 -->
      <g transform="translate(773.821165 527.238438)scale(0.1 -0.1)">
       <defs>
        <path d="M 2034 2216 
Q 1584 2216 1326 1975 
Q 1069 1734 1069 1313 
Q 1069 891 1326 650 
Q 1584 409 2034 409 
Q 2484 409 2743 651 
Q 3003 894 3003 1313 
Q 3003 1734 2745 1975 
Q 2488 2216 2034 2216 
z
M 1403 2484 
Q 997 2584 770 2862 
Q 544 3141 544 3541 
Q 544 4100 942 4425 
Q 1341 4750 2034 4750 
Q 2731 4750 3128 4425 
Q 3525 4100 3525 3541 
Q 3525 3141 3298 2862 
Q 3072 2584 2669 2484 
Q 3125 2378 3379 2068 
Q 3634 1759 3634 1313 
Q 3634 634 3220 271 
Q 2806 -91 2034 -91 
Q 1263 -91 848 271 
Q 434 634 434 1313 
Q 434 1759 690 2068 
Q 947 2378 1403 2484 
z
M 1172 3481 
Q 1172 3119 1398 2916 
Q 1625 2713 2034 2713 
Q 2441 2713 2670 2916 
Q 2900 3119 2900 3481 
Q 2900 3844 2670 4047 
Q 2441 4250 2034 4250 
Q 1625 4250 1398 4047 
Q 1172 3844 1172 3481 
z
" id="DejaVuSans-38" transform="scale(0.015625)"/>
       </defs>
       <use xlink:href="#DejaVuSans-30"/>
       <use x="63.623047" xlink:href="#DejaVuSans-2e"/>
       <use x="95.410156" xlink:href="#DejaVuSans-38"/>
      </g>
     </g>
    </g>
    <g id="xtick_6">
     <g id="line2d_6">
      <g>
       <use style="stroke:#000000;stroke-width:0.8;" x="933.954545" xlink:href="#mc1386e1a2f" y="512.64"/>
      </g>
     </g>
     <g id="text_6">
      <!-- 1.0 -->
      <g transform="translate(926.002983 527.238438)scale(0.1 -0.1)">
       <defs>
        <path d="M 794 531 
L 1825 531 
L 1825 4091 
L 703 3866 
L 703 4441 
L 1819 4666 
L 2450 4666 
L 2450 531 
L 3481 531 
L 3481 0 
L 794 0 
L 794 531 
z
" id="DejaVuSans-31" transform="scale(0.015625)"/>
       </defs>
       <use xlink:href="#DejaVuSans-31"/>
       <use x="63.623047" xlink:href="#DejaVuSans-2e"/>
       <use x="95.410156" xlink:href="#DejaVuSans-30"/>
      </g>
     </g>
    </g>
    <g id="text_7">
     <!-- False Positive Rate (Positive label: 1) -->
     <g transform="translate(462.134375 540.916563)scale(0.1 -0.1)">
      <defs>
       <path d="M 628 4666 
L 3309 4666 
L 3309 4134 
L 1259 4134 
L 1259 2759 
L 3109 2759 
L 3109 2228 
L 1259 2228 
L 1259 0 
L 628 0 
L 628 4666 
z
" id="DejaVuSans-46" transform="scale(0.015625)"/>
       <path d="M 2194 1759 
Q 1497 1759 1228 1600 
Q 959 1441 959 1056 
Q 959 750 1161 570 
Q 1363 391 1709 391 
Q 2188 391 2477 730 
Q 2766 1069 2766 1631 
L 2766 1759 
L 2194 1759 
z
M 3341 1997 
L 3341 0 
L 2766 0 
L 2766 531 
Q 2569 213 2275 61 
Q 1981 -91 1556 -91 
Q 1019 -91 701 211 
Q 384 513 384 1019 
Q 384 1609 779 1909 
Q 1175 2209 1959 2209 
L 2766 2209 
L 2766 2266 
Q 2766 2663 2505 2880 
Q 2244 3097 1772 3097 
Q 1472 3097 1187 3025 
Q 903 2953 641 2809 
L 641 3341 
Q 956 3463 1253 3523 
Q 1550 3584 1831 3584 
Q 2591 3584 2966 3190 
Q 3341 2797 3341 1997 
z
" id="DejaVuSans-61" transform="scale(0.015625)"/>
       <path d="M 603 4863 
L 1178 4863 
L 1178 0 
L 603 0 
L 603 4863 
z
" id="DejaVuSans-6c" transform="scale(0.015625)"/>
       <path d="M 2834 3397 
L 2834 2853 
Q 2591 2978 2328 3040 
Q 2066 3103 1784 3103 
Q 1356 3103 1142 2972 
Q 928 2841 928 2578 
Q 928 2378 1081 2264 
Q 1234 2150 1697 2047 
L 1894 2003 
Q 2506 1872 2764 1633 
Q 3022 1394 3022 966 
Q 3022 478 2636 193 
Q 2250 -91 1575 -91 
Q 1294 -91 989 -36 
Q 684 19 347 128 
L 347 722 
Q 666 556 975 473 
Q 1284 391 1588 391 
Q 1994 391 2212 530 
Q 2431 669 2431 922 
Q 2431 1156 2273 1281 
Q 2116 1406 1581 1522 
L 1381 1569 
Q 847 1681 609 1914 
Q 372 2147 372 2553 
Q 372 3047 722 3315 
Q 1072 3584 1716 3584 
Q 2034 3584 2315 3537 
Q 2597 3491 2834 3397 
z
" id="DejaVuSans-73" transform="scale(0.015625)"/>
       <path d="M 3597 1894 
L 3597 1613 
L 953 1613 
Q 991 1019 1311 708 
Q 1631 397 2203 397 
Q 2534 397 2845 478 
Q 3156 559 3463 722 
L 3463 178 
Q 3153 47 2828 -22 
Q 2503 -91 2169 -91 
Q 1331 -91 842 396 
Q 353 884 353 1716 
Q 353 2575 817 3079 
Q 1281 3584 2069 3584 
Q 2775 3584 3186 3129 
Q 3597 2675 3597 1894 
z
M 3022 2063 
Q 3016 2534 2758 2815 
Q 2500 3097 2075 3097 
Q 1594 3097 1305 2825 
Q 1016 2553 972 2059 
L 3022 2063 
z
" id="DejaVuSans-65" transform="scale(0.015625)"/>
       <path id="DejaVuSans-20" transform="scale(0.015625)"/>
       <path d="M 1259 4147 
L 1259 2394 
L 2053 2394 
Q 2494 2394 2734 2622 
Q 2975 2850 2975 3272 
Q 2975 3691 2734 3919 
Q 2494 4147 2053 4147 
L 1259 4147 
z
M 628 4666 
L 2053 4666 
Q 2838 4666 3239 4311 
Q 3641 3956 3641 3272 
Q 3641 2581 3239 2228 
Q 2838 1875 2053 1875 
L 1259 1875 
L 1259 0 
L 628 0 
L 628 4666 
z
" id="DejaVuSans-50" transform="scale(0.015625)"/>
       <path d="M 1959 3097 
Q 1497 3097 1228 2736 
Q 959 2375 959 1747 
Q 959 1119 1226 758 
Q 1494 397 1959 397 
Q 2419 397 2687 759 
Q 2956 1122 2956 1747 
Q 2956 2369 2687 2733 
Q 2419 3097 1959 3097 
z
M 1959 3584 
Q 2709 3584 3137 3096 
Q 3566 2609 3566 1747 
Q 3566 888 3137 398 
Q 2709 -91 1959 -91 
Q 1206 -91 779 398 
Q 353 888 353 1747 
Q 353 2609 779 3096 
Q 1206 3584 1959 3584 
z
" id="DejaVuSans-6f" transform="scale(0.015625)"/>
       <path d="M 603 3500 
L 1178 3500 
L 1178 0 
L 603 0 
L 603 3500 
z
M 603 4863 
L 1178 4863 
L 1178 4134 
L 603 4134 
L 603 4863 
z
" id="DejaVuSans-69" transform="scale(0.015625)"/>
       <path d="M 1172 4494 
L 1172 3500 
L 2356 3500 
L 2356 3053 
L 1172 3053 
L 1172 1153 
Q 1172 725 1289 603 
Q 1406 481 1766 481 
L 2356 481 
L 2356 0 
L 1766 0 
Q 1100 0 847 248 
Q 594 497 594 1153 
L 594 3053 
L 172 3053 
L 172 3500 
L 594 3500 
L 594 4494 
L 1172 4494 
z
" id="DejaVuSans-74" transform="scale(0.015625)"/>
       <path d="M 191 3500 
L 800 3500 
L 1894 563 
L 2988 3500 
L 3597 3500 
L 2284 0 
L 1503 0 
L 191 3500 
z
" id="DejaVuSans-76" transform="scale(0.015625)"/>
       <path d="M 2841 2188 
Q 3044 2119 3236 1894 
Q 3428 1669 3622 1275 
L 4263 0 
L 3584 0 
L 2988 1197 
Q 2756 1666 2539 1819 
Q 2322 1972 1947 1972 
L 1259 1972 
L 1259 0 
L 628 0 
L 628 4666 
L 2053 4666 
Q 2853 4666 3247 4331 
Q 3641 3997 3641 3322 
Q 3641 2881 3436 2590 
Q 3231 2300 2841 2188 
z
M 1259 4147 
L 1259 2491 
L 2053 2491 
Q 2509 2491 2742 2702 
Q 2975 2913 2975 3322 
Q 2975 3731 2742 3939 
Q 2509 4147 2053 4147 
L 1259 4147 
z
" id="DejaVuSans-52" transform="scale(0.015625)"/>
       <path d="M 1984 4856 
Q 1566 4138 1362 3434 
Q 1159 2731 1159 2009 
Q 1159 1288 1364 580 
Q 1569 -128 1984 -844 
L 1484 -844 
Q 1016 -109 783 600 
Q 550 1309 550 2009 
Q 550 2706 781 3412 
Q 1013 4119 1484 4856 
L 1984 4856 
z
" id="DejaVuSans-28" transform="scale(0.015625)"/>
       <path d="M 3116 1747 
Q 3116 2381 2855 2742 
Q 2594 3103 2138 3103 
Q 1681 3103 1420 2742 
Q 1159 2381 1159 1747 
Q 1159 1113 1420 752 
Q 1681 391 2138 391 
Q 2594 391 2855 752 
Q 3116 1113 3116 1747 
z
M 1159 2969 
Q 1341 3281 1617 3432 
Q 1894 3584 2278 3584 
Q 2916 3584 3314 3078 
Q 3713 2572 3713 1747 
Q 3713 922 3314 415 
Q 2916 -91 2278 -91 
Q 1894 -91 1617 61 
Q 1341 213 1159 525 
L 1159 0 
L 581 0 
L 581 4863 
L 1159 4863 
L 1159 2969 
z
" id="DejaVuSans-62" transform="scale(0.015625)"/>
       <path d="M 750 794 
L 1409 794 
L 1409 0 
L 750 0 
L 750 794 
z
M 750 3309 
L 1409 3309 
L 1409 2516 
L 750 2516 
L 750 3309 
z
" id="DejaVuSans-3a" transform="scale(0.015625)"/>
       <path d="M 513 4856 
L 1013 4856 
Q 1481 4119 1714 3412 
Q 1947 2706 1947 2009 
Q 1947 1309 1714 600 
Q 1481 -109 1013 -844 
L 513 -844 
Q 928 -128 1133 580 
Q 1338 1288 1338 2009 
Q 1338 2731 1133 3434 
Q 928 4138 513 4856 
z
" id="DejaVuSans-29" transform="scale(0.015625)"/>
      </defs>
      <use xlink:href="#DejaVuSans-46"/>
      <use x="48.394531" xlink:href="#DejaVuSans-61"/>
      <use x="109.673828" xlink:href="#DejaVuSans-6c"/>
      <use x="137.457031" xlink:href="#DejaVuSans-73"/>
      <use x="189.556641" xlink:href="#DejaVuSans-65"/>
      <use x="251.080078" xlink:href="#DejaVuSans-20"/>
      <use x="282.867188" xlink:href="#DejaVuSans-50"/>
      <use x="339.544922" xlink:href="#DejaVuSans-6f"/>
      <use x="400.726562" xlink:href="#DejaVuSans-73"/>
      <use x="452.826172" xlink:href="#DejaVuSans-69"/>
      <use x="480.609375" xlink:href="#DejaVuSans-74"/>
      <use x="519.818359" xlink:href="#DejaVuSans-69"/>
      <use x="547.601562" xlink:href="#DejaVuSans-76"/>
      <use x="606.78125" xlink:href="#DejaVuSans-65"/>
      <use x="668.304688" xlink:href="#DejaVuSans-20"/>
      <use x="700.091797" xlink:href="#DejaVuSans-52"/>
      <use x="767.324219" xlink:href="#DejaVuSans-61"/>
      <use x="828.603516" xlink:href="#DejaVuSans-74"/>
      <use x="867.8125" xlink:href="#DejaVuSans-65"/>
      <use x="929.335938" xlink:href="#DejaVuSans-20"/>
      <use x="961.123047" xlink:href="#DejaVuSans-28"/>
      <use x="1000.136719" xlink:href="#DejaVuSans-50"/>
      <use x="1056.814453" xlink:href="#DejaVuSans-6f"/>
      <use x="1117.996094" xlink:href="#DejaVuSans-73"/>
      <use x="1170.095703" xlink:href="#DejaVuSans-69"/>
      <use x="1197.878906" xlink:href="#DejaVuSans-74"/>
      <use x="1237.087891" xlink:href="#DejaVuSans-69"/>
      <use x="1264.871094" xlink:href="#DejaVuSans-76"/>
      <use x="1324.050781" xlink:href="#DejaVuSans-65"/>
      <use x="1385.574219" xlink:href="#DejaVuSans-20"/>
      <use x="1417.361328" xlink:href="#DejaVuSans-6c"/>
      <use x="1445.144531" xlink:href="#DejaVuSans-61"/>
      <use x="1506.423828" xlink:href="#DejaVuSans-62"/>
      <use x="1569.900391" xlink:href="#DejaVuSans-65"/>
      <use x="1631.423828" xlink:href="#DejaVuSans-6c"/>
      <use x="1659.207031" xlink:href="#DejaVuSans-3a"/>
      <use x="1692.898438" xlink:href="#DejaVuSans-20"/>
      <use x="1724.685547" xlink:href="#DejaVuSans-31"/>
      <use x="1788.308594" xlink:href="#DejaVuSans-29"/>
     </g>
    </g>
   </g>
   <g id="matplotlib.axis_2">
    <g id="ytick_1">
     <g id="line2d_7">
      <defs>
       <path d="M 0 0 
L -3.5 0 
" id="mc6bbeb3b84" style="stroke:#000000;stroke-width:0.8;"/>
      </defs>
      <g>
       <use style="stroke:#000000;stroke-width:0.8;" x="135" xlink:href="#mc6bbeb3b84" y="492.48"/>
      </g>
     </g>
     <g id="text_8">
      <!-- 0.0 -->
      <g transform="translate(112.096875 496.279219)scale(0.1 -0.1)">
       <use xlink:href="#DejaVuSans-30"/>
       <use x="63.623047" xlink:href="#DejaVuSans-2e"/>
       <use x="95.410156" xlink:href="#DejaVuSans-30"/>
      </g>
     </g>
    </g>
    <g id="ytick_2">
     <g id="line2d_8">
      <g>
       <use style="stroke:#000000;stroke-width:0.8;" x="135" xlink:href="#mc6bbeb3b84" y="411.84"/>
      </g>
     </g>
     <g id="text_9">
      <!-- 0.2 -->
      <g transform="translate(112.096875 415.639219)scale(0.1 -0.1)">
       <use xlink:href="#DejaVuSans-30"/>
       <use x="63.623047" xlink:href="#DejaVuSans-2e"/>
       <use x="95.410156" xlink:href="#DejaVuSans-32"/>
      </g>
     </g>
    </g>
    <g id="ytick_3">
     <g id="line2d_9">
      <g>
       <use style="stroke:#000000;stroke-width:0.8;" x="135" xlink:href="#mc6bbeb3b84" y="331.2"/>
      </g>
     </g>
     <g id="text_10">
      <!-- 0.4 -->
      <g transform="translate(112.096875 334.999219)scale(0.1 -0.1)">
       <use xlink:href="#DejaVuSans-30"/>
       <use x="63.623047" xlink:href="#DejaVuSans-2e"/>
       <use x="95.410156" xlink:href="#DejaVuSans-34"/>
      </g>
     </g>
    </g>
    <g id="ytick_4">
     <g id="line2d_10">
      <g>
       <use style="stroke:#000000;stroke-width:0.8;" x="135" xlink:href="#mc6bbeb3b84" y="250.56"/>
      </g>
     </g>
     <g id="text_11">
      <!-- 0.6 -->
      <g transform="translate(112.096875 254.359219)scale(0.1 -0.1)">
       <use xlink:href="#DejaVuSans-30"/>
       <use x="63.623047" xlink:href="#DejaVuSans-2e"/>
       <use x="95.410156" xlink:href="#DejaVuSans-36"/>
      </g>
     </g>
    </g>
    <g id="ytick_5">
     <g id="line2d_11">
      <g>
       <use style="stroke:#000000;stroke-width:0.8;" x="135" xlink:href="#mc6bbeb3b84" y="169.92"/>
      </g>
     </g>
     <g id="text_12">
      <!-- 0.8 -->
      <g transform="translate(112.096875 173.719219)scale(0.1 -0.1)">
       <use xlink:href="#DejaVuSans-30"/>
       <use x="63.623047" xlink:href="#DejaVuSans-2e"/>
       <use x="95.410156" xlink:href="#DejaVuSans-38"/>
      </g>
     </g>
    </g>
    <g id="ytick_6">
     <g id="line2d_12">
      <g>
       <use style="stroke:#000000;stroke-width:0.8;" x="135" xlink:href="#mc6bbeb3b84" y="89.28"/>
      </g>
     </g>
     <g id="text_13">
      <!-- 1.0 -->
      <g transform="translate(112.096875 93.079219)scale(0.1 -0.1)">
       <use xlink:href="#DejaVuSans-31"/>
       <use x="63.623047" xlink:href="#DejaVuSans-2e"/>
       <use x="95.410156" xlink:href="#DejaVuSans-30"/>
      </g>
     </g>
    </g>
    <g id="text_14">
     <!-- True Positive Rate (Positive label: 1) -->
     <g transform="translate(106.017187 380.308906)rotate(-90)scale(0.1 -0.1)">
      <defs>
       <path d="M -19 4666 
L 3928 4666 
L 3928 4134 
L 2272 4134 
L 2272 0 
L 1638 0 
L 1638 4134 
L -19 4134 
L -19 4666 
z
" id="DejaVuSans-54" transform="scale(0.015625)"/>
       <path d="M 2631 2963 
Q 2534 3019 2420 3045 
Q 2306 3072 2169 3072 
Q 1681 3072 1420 2755 
Q 1159 2438 1159 1844 
L 1159 0 
L 581 0 
L 581 3500 
L 1159 3500 
L 1159 2956 
Q 1341 3275 1631 3429 
Q 1922 3584 2338 3584 
Q 2397 3584 2469 3576 
Q 2541 3569 2628 3553 
L 2631 2963 
z
" id="DejaVuSans-72" transform="scale(0.015625)"/>
       <path d="M 544 1381 
L 544 3500 
L 1119 3500 
L 1119 1403 
Q 1119 906 1312 657 
Q 1506 409 1894 409 
Q 2359 409 2629 706 
Q 2900 1003 2900 1516 
L 2900 3500 
L 3475 3500 
L 3475 0 
L 2900 0 
L 2900 538 
Q 2691 219 2414 64 
Q 2138 -91 1772 -91 
Q 1169 -91 856 284 
Q 544 659 544 1381 
z
M 1991 3584 
L 1991 3584 
z
" id="DejaVuSans-75" transform="scale(0.015625)"/>
      </defs>
      <use xlink:href="#DejaVuSans-54"/>
      <use x="46.333984" xlink:href="#DejaVuSans-72"/>
      <use x="87.447266" xlink:href="#DejaVuSans-75"/>
      <use x="150.826172" xlink:href="#DejaVuSans-65"/>
      <use x="212.349609" xlink:href="#DejaVuSans-20"/>
      <use x="244.136719" xlink:href="#DejaVuSans-50"/>
      <use x="300.814453" xlink:href="#DejaVuSans-6f"/>
      <use x="361.996094" xlink:href="#DejaVuSans-73"/>
      <use x="414.095703" xlink:href="#DejaVuSans-69"/>
      <use x="441.878906" xlink:href="#DejaVuSans-74"/>
      <use x="481.087891" xlink:href="#DejaVuSans-69"/>
      <use x="508.871094" xlink:href="#DejaVuSans-76"/>
      <use x="568.050781" xlink:href="#DejaVuSans-65"/>
      <use x="629.574219" xlink:href="#DejaVuSans-20"/>
      <use x="661.361328" xlink:href="#DejaVuSans-52"/>
      <use x="728.59375" xlink:href="#DejaVuSans-61"/>
      <use x="789.873047" xlink:href="#DejaVuSans-74"/>
      <use x="829.082031" xlink:href="#DejaVuSans-65"/>
      <use x="890.605469" xlink:href="#DejaVuSans-20"/>
      <use x="922.392578" xlink:href="#DejaVuSans-28"/>
      <use x="961.40625" xlink:href="#DejaVuSans-50"/>
      <use x="1018.083984" xlink:href="#DejaVuSans-6f"/>
      <use x="1079.265625" xlink:href="#DejaVuSans-73"/>
      <use x="1131.365234" xlink:href="#DejaVuSans-69"/>
      <use x="1159.148438" xlink:href="#DejaVuSans-74"/>
      <use x="1198.357422" xlink:href="#DejaVuSans-69"/>
      <use x="1226.140625" xlink:href="#DejaVuSans-76"/>
      <use x="1285.320312" xlink:href="#DejaVuSans-65"/>
      <use x="1346.84375" xlink:href="#DejaVuSans-20"/>
      <use x="1378.630859" xlink:href="#DejaVuSans-6c"/>
      <use x="1406.414062" xlink:href="#DejaVuSans-61"/>
      <use x="1467.693359" xlink:href="#DejaVuSans-62"/>
      <use x="1531.169922" xlink:href="#DejaVuSans-65"/>
      <use x="1592.693359" xlink:href="#DejaVuSans-6c"/>
      <use x="1620.476562" xlink:href="#DejaVuSans-3a"/>
      <use x="1654.167969" xlink:href="#DejaVuSans-20"/>
      <use x="1685.955078" xlink:href="#DejaVuSans-31"/>
      <use x="1749.578125" xlink:href="#DejaVuSans-29"/>
     </g>
    </g>
   </g>
   <g id="line2d_13">
    <path clip-path="url(#p3e1181a0a3)" d="M 173.045455 492.48 
L 173.045455 487.602581 
L 173.344672 482.725161 
L 173.344672 362.415484 
L 173.643889 359.976774 
L 173.943106 351.034839 
L 173.943106 333.150968 
L 174.242323 332.338065 
L 174.242323 329.086452 
L 174.54154 325.834839 
L 174.54154 294.944516 
L 174.840757 293.31871 
L 174.840757 267.305806 
L 175.139974 265.68 
L 175.139974 246.170323 
L 175.439191 242.105806 
L 175.439191 238.04129 
L 176.037626 233.976774 
L 176.037626 228.286452 
L 176.63606 223.409032 
L 176.63606 216.905806 
L 176.935277 214.467097 
L 177.533711 212.028387 
L 177.533711 207.963871 
L 177.832928 204.712258 
L 178.431362 203.086452 
L 178.730579 199.021935 
L 178.730579 195.770323 
L 179.329014 191.705806 
L 179.927448 190.08 
L 179.927448 178.699355 
L 180.525882 176.260645 
L 180.525882 171.383226 
L 181.423533 170.570323 
L 181.423533 168.131613 
L 181.722751 164.88 
L 181.722751 163.254194 
L 182.321185 160.815484 
L 182.321185 158.376774 
L 183.218836 153.499355 
L 183.518053 150.247742 
L 184.714922 148.621935 
L 185.014139 147.809032 
L 185.612573 146.996129 
L 185.91179 142.931613 
L 186.211007 140.492903 
L 186.510224 140.492903 
L 186.510224 139.68 
L 187.108658 138.867097 
L 187.407875 138.054194 
L 188.604744 136.428387 
L 189.502395 135.615484 
L 189.801612 133.989677 
L 190.100829 133.989677 
L 190.400046 133.176774 
L 190.400046 132.363871 
L 190.699264 130.738065 
L 192.195349 129.112258 
L 192.494566 128.299355 
L 193.990652 128.299355 
L 194.289869 126.673548 
L 194.888303 125.860645 
L 195.785954 124.234839 
L 196.085171 123.421935 
L 196.384389 120.983226 
L 196.384389 119.357419 
L 197.581257 118.544516 
L 198.179691 116.105806 
L 199.077342 114.48 
L 200.274211 113.667097 
L 203.565599 113.667097 
L 204.762467 112.854194 
L 205.660119 111.228387 
L 206.258553 111.228387 
L 206.856987 109.602581 
L 207.455421 108.789677 
L 208.053856 107.163871 
L 211.345244 107.163871 
L 213.439763 105.538065 
L 214.038198 104.725161 
L 216.431934 103.099355 
L 219.424105 103.099355 
L 221.817842 102.286452 
L 225.10923 102.286452 
L 227.20375 101.473548 
L 228.400618 99.847742 
L 229.597487 97.409032 
L 231.392789 97.409032 
L 233.786526 95.783226 
L 240.66852 95.783226 
L 242.763039 94.970323 
L 249.94425 94.970323 
L 253.235638 94.157419 
L 257.424677 94.157419 
L 260.416848 93.344516 
L 278.369875 93.344516 
L 292.133861 90.905806 
L 300.212723 90.905806 
L 306.795499 90.092903 
L 319.961052 90.092903 
L 328.937565 89.28 
L 933.954545 89.28 
L 933.954545 89.28 
" style="fill:none;stroke:#1f77b4;stroke-linecap:square;stroke-opacity:0.8;stroke-width:1.5;"/>
   </g>
   <g id="line2d_14">
    <path clip-path="url(#p3e1181a0a3)" d="M 173.045455 492.48 
L 173.045455 485.976774 
L 173.344672 485.976774 
L 173.344672 474.596129 
L 173.643889 474.596129 
L 173.643889 472.970323 
L 173.943106 472.970323 
L 173.943106 458.338065 
L 174.242323 458.338065 
L 174.242323 439.64129 
L 175.139974 439.64129 
L 175.139974 438.015484 
L 175.738408 438.015484 
L 175.738408 434.763871 
L 176.037626 434.763871 
L 176.037626 429.886452 
L 176.336843 429.886452 
L 176.336843 429.073548 
L 176.63606 429.073548 
L 176.63606 426.634839 
L 176.935277 426.634839 
L 176.935277 424.196129 
L 177.234494 424.196129 
L 177.234494 418.505806 
L 178.132145 418.505806 
L 178.132145 412.815484 
L 178.431362 412.815484 
L 178.431362 407.938065 
L 179.029797 407.938065 
L 179.029797 404.686452 
L 179.329014 404.686452 
L 179.329014 403.873548 
L 179.628231 403.873548 
L 179.628231 396.557419 
L 179.927448 396.557419 
L 179.927448 395.744516 
L 180.226665 395.744516 
L 180.226665 394.931613 
L 180.525882 394.931613 
L 180.525882 394.11871 
L 180.825099 394.11871 
L 180.825099 392.492903 
L 181.124316 392.492903 
L 181.124316 386.802581 
L 181.423533 386.802581 
L 181.423533 384.363871 
L 182.620402 384.363871 
L 182.620402 381.925161 
L 183.218836 381.925161 
L 183.218836 381.112258 
L 183.518053 381.112258 
L 183.518053 377.047742 
L 183.81727 377.047742 
L 183.81727 374.609032 
L 184.116487 374.609032 
L 184.116487 370.544516 
L 184.415704 370.544516 
L 184.415704 365.667097 
L 185.014139 365.667097 
L 185.014139 363.228387 
L 185.313356 363.228387 
L 185.313356 362.415484 
L 186.211007 362.415484 
L 186.211007 358.350968 
L 186.510224 358.350968 
L 186.510224 356.725161 
L 186.809441 356.725161 
L 186.809441 355.099355 
L 187.108658 355.099355 
L 187.108658 354.286452 
L 187.407875 354.286452 
L 187.407875 351.847742 
L 187.707093 351.847742 
L 187.707093 350.221935 
L 188.604744 350.221935 
L 188.604744 346.970323 
L 188.903961 346.970323 
L 188.903961 346.157419 
L 190.400046 346.157419 
L 190.400046 345.344516 
L 190.699264 345.344516 
L 190.699264 343.71871 
L 190.998481 343.71871 
L 190.998481 342.905806 
L 191.297698 342.905806 
L 191.297698 340.467097 
L 191.596915 340.467097 
L 191.596915 339.654194 
L 192.494566 339.654194 
L 192.494566 336.402581 
L 192.793783 336.402581 
L 192.793783 335.589677 
L 193.093 335.589677 
L 193.093 330.712258 
L 193.392217 330.712258 
L 193.392217 329.086452 
L 193.691435 329.086452 
L 193.691435 327.460645 
L 194.289869 327.460645 
L 194.289869 326.647742 
L 195.18752 326.647742 
L 195.18752 325.021935 
L 195.785954 325.021935 
L 195.785954 324.209032 
L 196.384389 324.209032 
L 196.384389 323.396129 
L 196.683606 323.396129 
L 196.683606 322.583226 
L 196.982823 322.583226 
L 196.982823 321.770323 
L 197.581257 321.770323 
L 197.581257 320.957419 
L 197.880474 320.957419 
L 197.880474 320.144516 
L 198.179691 320.144516 
L 198.179691 316.892903 
L 198.478908 316.892903 
L 198.478908 311.202581 
L 199.077342 311.202581 
L 199.077342 310.389677 
L 199.974994 310.389677 
L 199.974994 309.576774 
L 200.274211 309.576774 
L 200.274211 305.512258 
L 200.573428 305.512258 
L 200.573428 302.260645 
L 200.872645 302.260645 
L 200.872645 301.447742 
L 201.471079 301.447742 
L 201.471079 299.821935 
L 202.368731 299.821935 
L 202.368731 299.009032 
L 202.667948 299.009032 
L 202.667948 298.196129 
L 203.266382 298.196129 
L 203.266382 296.570323 
L 204.46325 296.570323 
L 204.46325 294.944516 
L 204.762467 294.944516 
L 204.762467 291.692903 
L 205.061684 291.692903 
L 205.061684 290.88 
L 205.360902 290.88 
L 205.360902 290.067097 
L 205.660119 290.067097 
L 205.660119 289.254194 
L 206.55777 289.254194 
L 206.55777 288.44129 
L 206.856987 288.44129 
L 206.856987 287.628387 
L 208.353073 287.628387 
L 208.353073 283.563871 
L 208.951507 283.563871 
L 208.951507 281.938065 
L 209.250724 281.938065 
L 209.250724 280.312258 
L 209.549941 280.312258 
L 209.549941 279.499355 
L 210.148375 279.499355 
L 210.148375 278.686452 
L 210.447592 278.686452 
L 210.447592 276.247742 
L 211.046027 276.247742 
L 211.046027 273.809032 
L 211.644461 273.809032 
L 211.644461 272.183226 
L 211.943678 272.183226 
L 211.943678 269.744516 
L 212.242895 269.744516 
L 212.242895 268.931613 
L 212.542112 268.931613 
L 212.542112 267.305806 
L 213.439763 267.305806 
L 213.439763 265.68 
L 215.534283 265.68 
L 215.534283 264.867097 
L 216.132717 264.867097 
L 216.132717 264.054194 
L 216.731151 264.054194 
L 216.731151 262.428387 
L 218.227237 262.428387 
L 218.227237 261.615484 
L 218.526454 261.615484 
L 218.526454 260.802581 
L 218.825671 260.802581 
L 218.825671 258.363871 
L 219.124888 258.363871 
L 219.124888 257.550968 
L 219.723322 257.550968 
L 219.723322 254.299355 
L 220.02254 254.299355 
L 220.02254 253.486452 
L 220.321757 253.486452 
L 220.321757 252.673548 
L 220.920191 252.673548 
L 220.920191 251.047742 
L 221.219408 251.047742 
L 221.219408 250.234839 
L 221.518625 250.234839 
L 221.518625 249.421935 
L 222.715494 249.421935 
L 222.715494 248.609032 
L 223.014711 248.609032 
L 223.014711 247.796129 
L 223.613145 247.796129 
L 223.613145 246.170323 
L 224.510796 246.170323 
L 224.510796 244.544516 
L 225.707665 244.544516 
L 225.707665 241.292903 
L 226.904533 241.292903 
L 226.904533 238.854194 
L 227.20375 238.854194 
L 227.20375 238.04129 
L 228.400618 238.04129 
L 228.400618 237.228387 
L 228.699836 237.228387 
L 228.699836 236.415484 
L 228.999053 236.415484 
L 228.999053 235.602581 
L 231.392789 235.602581 
L 231.392789 232.350968 
L 233.188092 232.350968 
L 233.188092 231.538065 
L 234.085743 231.538065 
L 234.085743 229.099355 
L 234.38496 229.099355 
L 234.38496 227.473548 
L 235.282612 227.473548 
L 235.282612 226.660645 
L 235.581829 226.660645 
L 235.581829 225.847742 
L 237.077914 225.847742 
L 237.077914 225.034839 
L 238.274783 225.034839 
L 238.274783 223.409032 
L 238.574 223.409032 
L 238.574 222.596129 
L 238.873217 222.596129 
L 238.873217 221.783226 
L 239.172434 221.783226 
L 239.172434 218.531613 
L 240.369303 218.531613 
L 240.369303 216.905806 
L 241.865388 216.905806 
L 241.865388 213.654194 
L 242.164605 213.654194 
L 242.164605 212.84129 
L 242.763039 212.84129 
L 242.763039 212.028387 
L 243.660691 212.028387 
L 243.660691 211.215484 
L 244.259125 211.215484 
L 244.259125 210.402581 
L 245.156776 210.402581 
L 245.156776 209.589677 
L 246.652862 209.589677 
L 246.652862 208.776774 
L 246.952079 208.776774 
L 246.952079 207.963871 
L 248.148947 207.963871 
L 248.148947 207.150968 
L 248.747381 207.150968 
L 248.747381 206.338065 
L 249.345816 206.338065 
L 249.345816 205.525161 
L 249.94425 205.525161 
L 249.94425 204.712258 
L 251.141118 204.712258 
L 251.141118 202.273548 
L 252.337987 202.273548 
L 252.337987 201.460645 
L 253.534855 201.460645 
L 253.534855 200.647742 
L 253.834072 200.647742 
L 253.834072 199.834839 
L 254.731723 199.834839 
L 254.731723 199.021935 
L 256.527026 199.021935 
L 256.527026 198.209032 
L 256.826243 198.209032 
L 256.826243 197.396129 
L 258.023112 197.396129 
L 258.023112 196.583226 
L 258.920763 196.583226 
L 258.920763 194.957419 
L 259.21998 194.957419 
L 259.21998 192.51871 
L 261.3145 192.51871 
L 261.3145 191.705806 
L 262.810585 191.705806 
L 262.810585 190.08 
L 264.007454 190.08 
L 264.007454 187.64129 
L 266.40119 187.64129 
L 266.40119 186.828387 
L 270.59023 186.828387 
L 270.59023 186.015484 
L 271.787098 186.015484 
L 271.787098 185.202581 
L 273.881618 185.202581 
L 273.881618 184.389677 
L 274.779269 184.389677 
L 274.779269 183.576774 
L 275.377703 183.576774 
L 275.377703 182.763871 
L 276.574572 182.763871 
L 276.574572 181.950968 
L 276.873789 181.950968 
L 276.873789 181.138065 
L 277.173006 181.138065 
L 277.173006 179.512258 
L 277.77144 179.512258 
L 277.77144 178.699355 
L 278.070657 178.699355 
L 278.070657 177.886452 
L 281.062828 177.886452 
L 281.062828 177.073548 
L 281.96048 177.073548 
L 281.96048 175.447742 
L 283.157348 175.447742 
L 283.157348 173.009032 
L 285.551085 173.009032 
L 285.551085 172.196129 
L 288.543256 172.196129 
L 288.543256 171.383226 
L 290.637776 171.383226 
L 290.637776 169.757419 
L 291.23621 169.757419 
L 291.23621 168.944516 
L 293.33073 168.944516 
L 293.33073 168.131613 
L 294.826815 168.131613 
L 294.826815 166.505806 
L 295.425249 166.505806 
L 295.425249 165.692903 
L 301.110374 165.692903 
L 301.110374 164.88 
L 302.008026 164.88 
L 302.008026 164.067097 
L 303.504111 164.067097 
L 303.504111 163.254194 
L 303.803328 163.254194 
L 303.803328 162.44129 
L 304.102545 162.44129 
L 304.102545 160.815484 
L 304.401762 160.815484 
L 304.401762 160.002581 
L 305.598631 160.002581 
L 305.598631 159.189677 
L 306.197065 159.189677 
L 306.197065 158.376774 
L 307.393933 158.376774 
L 307.393933 157.563871 
L 308.291585 157.563871 
L 308.291585 156.750968 
L 321.457137 156.750968 
L 321.457137 155.938065 
L 322.654006 155.938065 
L 322.654006 155.125161 
L 327.441479 155.125161 
L 327.441479 154.312258 
L 329.535999 154.312258 
L 329.535999 153.499355 
L 330.43365 153.499355 
L 330.43365 152.686452 
L 331.630519 152.686452 
L 331.630519 151.873548 
L 332.52817 151.873548 
L 332.52817 151.060645 
L 336.417992 151.060645 
L 336.417992 150.247742 
L 337.914078 150.247742 
L 337.914078 149.434839 
L 348.386676 149.434839 
L 348.386676 147.809032 
L 350.181979 147.809032 
L 350.181979 146.996129 
L 355.26867 146.996129 
L 355.26867 145.370323 
L 356.764755 145.370323 
L 356.764755 144.557419 
L 360.056143 144.557419 
L 360.056143 143.744516 
L 361.253012 143.744516 
L 361.253012 142.931613 
L 361.851446 142.931613 
L 361.851446 142.11871 
L 364.843617 142.11871 
L 364.843617 140.492903 
L 365.142834 140.492903 
L 365.142834 139.68 
L 393.568459 139.68 
L 393.568459 138.867097 
L 393.867676 138.867097 
L 393.867676 137.24129 
L 395.363761 137.24129 
L 395.363761 136.428387 
L 408.529314 136.428387 
L 408.529314 135.615484 
L 412.119919 135.615484 
L 412.119919 134.802581 
L 415.411307 134.802581 
L 415.411307 133.989677 
L 421.994084 133.989677 
L 421.994084 133.176774 
L 422.293301 133.176774 
L 422.293301 132.363871 
L 429.474511 132.363871 
L 429.474511 131.550968 
L 433.663551 131.550968 
L 433.663551 129.925161 
L 439.647893 129.925161 
L 439.647893 129.112258 
L 440.545544 129.112258 
L 440.545544 128.299355 
L 442.640064 128.299355 
L 442.640064 127.486452 
L 442.939281 127.486452 
L 442.939281 126.673548 
L 446.829103 126.673548 
L 446.829103 125.860645 
L 451.915794 125.860645 
L 451.915794 125.047742 
L 453.711096 125.047742 
L 453.711096 124.234839 
L 454.907965 124.234839 
L 454.907965 123.421935 
L 459.097004 123.421935 
L 459.097004 122.609032 
L 460.892307 122.609032 
L 460.892307 121.796129 
L 464.183695 121.796129 
L 464.183695 120.983226 
L 471.96334 120.983226 
L 471.96334 120.170323 
L 472.561774 120.170323 
L 472.561774 119.357419 
L 480.640636 119.357419 
L 480.640636 118.544516 
L 492.908537 118.544516 
L 492.908537 116.91871 
L 500.987399 116.91871 
L 500.987399 116.105806 
L 505.475655 116.105806 
L 505.475655 115.292903 
L 510.263129 115.292903 
L 510.263129 114.48 
L 513.2553 114.48 
L 513.2553 113.667097 
L 515.050602 113.667097 
L 515.050602 112.854194 
L 523.428681 112.854194 
L 523.428681 112.04129 
L 536.893451 112.04129 
L 536.893451 111.228387 
L 541.680924 111.228387 
L 541.680924 110.415484 
L 541.980142 110.415484 
L 541.980142 109.602581 
L 545.869964 109.602581 
L 545.869964 108.789677 
L 547.665267 108.789677 
L 547.665267 107.976774 
L 575.19324 107.976774 
L 575.19324 107.163871 
L 578.484628 107.163871 
L 578.484628 106.350968 
L 581.177582 106.350968 
L 581.177582 105.538065 
L 581.476799 105.538065 
L 581.476799 104.725161 
L 582.37445 104.725161 
L 582.37445 103.912258 
L 590.154095 103.912258 
L 590.154095 103.099355 
L 591.350963 103.099355 
L 591.350963 102.286452 
L 618.280503 102.286452 
L 618.280503 101.473548 
L 624.264845 101.473548 
L 624.264845 100.660645 
L 636.233529 100.660645 
L 636.233529 99.847742 
L 644.611608 99.847742 
L 644.611608 99.034839 
L 646.706127 99.034839 
L 646.706127 98.221935 
L 671.541147 98.221935 
L 671.541147 97.409032 
L 686.502002 97.409032 
L 686.502002 96.596129 
L 690.092607 96.596129 
L 690.092607 95.783226 
L 703.557377 95.783226 
L 703.557377 94.970323 
L 708.34485 94.970323 
L 708.34485 94.157419 
L 713.730758 94.157419 
L 713.730758 93.344516 
L 714.029975 93.344516 
L 714.029975 92.531613 
L 758.912541 92.531613 
L 758.912541 91.71871 
L 780.456172 91.71871 
L 780.456172 90.905806 
L 808.881797 90.905806 
L 808.881797 90.092903 
L 818.157527 90.092903 
L 818.157527 89.28 
L 933.954545 89.28 
L 933.954545 89.28 
" style="fill:none;stroke:#ff7f0e;stroke-linecap:square;stroke-opacity:0.8;stroke-width:1.5;"/>
   </g>
   <g id="patch_3">
    <path d="M 135 512.64 
L 135 69.12 
" style="fill:none;stroke:#000000;stroke-linecap:square;stroke-linejoin:miter;stroke-width:0.8;"/>
   </g>
   <g id="patch_4">
    <path d="M 972 512.64 
L 972 69.12 
" style="fill:none;stroke:#000000;stroke-linecap:square;stroke-linejoin:miter;stroke-width:0.8;"/>
   </g>
   <g id="patch_5">
    <path d="M 135 512.64 
L 972 512.64 
" style="fill:none;stroke:#000000;stroke-linecap:square;stroke-linejoin:miter;stroke-width:0.8;"/>
   </g>
   <g id="patch_6">
    <path d="M 135 69.12 
L 972 69.12 
" style="fill:none;stroke:#000000;stroke-linecap:square;stroke-linejoin:miter;stroke-width:0.8;"/>
   </g>
   <g id="legend_1">
    <g id="patch_7">
     <path d="M 746.153125 507.64 
L 965 507.64 
Q 967 507.64 967 505.64 
L 967 477.28375 
Q 967 475.28375 965 475.28375 
L 746.153125 475.28375 
Q 744.153125 475.28375 744.153125 477.28375 
L 744.153125 505.64 
Q 744.153125 507.64 746.153125 507.64 
z
" style="fill:#ffffff;opacity:0.8;stroke:#cccccc;stroke-linejoin:miter;"/>
    </g>
    <g id="line2d_15">
     <path d="M 748.153125 483.382187 
L 768.153125 483.382187 
" style="fill:none;stroke:#1f77b4;stroke-linecap:square;stroke-opacity:0.8;stroke-width:1.5;"/>
    </g>
    <g id="line2d_16"/>
    <g id="text_15">
     <!-- RandomForestClassifier (AUC = 0.99) -->
     <g transform="translate(776.153125 486.882187)scale(0.1 -0.1)">
      <defs>
       <path d="M 3513 2113 
L 3513 0 
L 2938 0 
L 2938 2094 
Q 2938 2591 2744 2837 
Q 2550 3084 2163 3084 
Q 1697 3084 1428 2787 
Q 1159 2491 1159 1978 
L 1159 0 
L 581 0 
L 581 3500 
L 1159 3500 
L 1159 2956 
Q 1366 3272 1645 3428 
Q 1925 3584 2291 3584 
Q 2894 3584 3203 3211 
Q 3513 2838 3513 2113 
z
" id="DejaVuSans-6e" transform="scale(0.015625)"/>
       <path d="M 2906 2969 
L 2906 4863 
L 3481 4863 
L 3481 0 
L 2906 0 
L 2906 525 
Q 2725 213 2448 61 
Q 2172 -91 1784 -91 
Q 1150 -91 751 415 
Q 353 922 353 1747 
Q 353 2572 751 3078 
Q 1150 3584 1784 3584 
Q 2172 3584 2448 3432 
Q 2725 3281 2906 2969 
z
M 947 1747 
Q 947 1113 1208 752 
Q 1469 391 1925 391 
Q 2381 391 2643 752 
Q 2906 1113 2906 1747 
Q 2906 2381 2643 2742 
Q 2381 3103 1925 3103 
Q 1469 3103 1208 2742 
Q 947 2381 947 1747 
z
" id="DejaVuSans-64" transform="scale(0.015625)"/>
       <path d="M 3328 2828 
Q 3544 3216 3844 3400 
Q 4144 3584 4550 3584 
Q 5097 3584 5394 3201 
Q 5691 2819 5691 2113 
L 5691 0 
L 5113 0 
L 5113 2094 
Q 5113 2597 4934 2840 
Q 4756 3084 4391 3084 
Q 3944 3084 3684 2787 
Q 3425 2491 3425 1978 
L 3425 0 
L 2847 0 
L 2847 2094 
Q 2847 2600 2669 2842 
Q 2491 3084 2119 3084 
Q 1678 3084 1418 2786 
Q 1159 2488 1159 1978 
L 1159 0 
L 581 0 
L 581 3500 
L 1159 3500 
L 1159 2956 
Q 1356 3278 1631 3431 
Q 1906 3584 2284 3584 
Q 2666 3584 2933 3390 
Q 3200 3197 3328 2828 
z
" id="DejaVuSans-6d" transform="scale(0.015625)"/>
       <path d="M 4122 4306 
L 4122 3641 
Q 3803 3938 3442 4084 
Q 3081 4231 2675 4231 
Q 1875 4231 1450 3742 
Q 1025 3253 1025 2328 
Q 1025 1406 1450 917 
Q 1875 428 2675 428 
Q 3081 428 3442 575 
Q 3803 722 4122 1019 
L 4122 359 
Q 3791 134 3420 21 
Q 3050 -91 2638 -91 
Q 1578 -91 968 557 
Q 359 1206 359 2328 
Q 359 3453 968 4101 
Q 1578 4750 2638 4750 
Q 3056 4750 3426 4639 
Q 3797 4528 4122 4306 
z
" id="DejaVuSans-43" transform="scale(0.015625)"/>
       <path d="M 2375 4863 
L 2375 4384 
L 1825 4384 
Q 1516 4384 1395 4259 
Q 1275 4134 1275 3809 
L 1275 3500 
L 2222 3500 
L 2222 3053 
L 1275 3053 
L 1275 0 
L 697 0 
L 697 3053 
L 147 3053 
L 147 3500 
L 697 3500 
L 697 3744 
Q 697 4328 969 4595 
Q 1241 4863 1831 4863 
L 2375 4863 
z
" id="DejaVuSans-66" transform="scale(0.015625)"/>
       <path d="M 2188 4044 
L 1331 1722 
L 3047 1722 
L 2188 4044 
z
M 1831 4666 
L 2547 4666 
L 4325 0 
L 3669 0 
L 3244 1197 
L 1141 1197 
L 716 0 
L 50 0 
L 1831 4666 
z
" id="DejaVuSans-41" transform="scale(0.015625)"/>
       <path d="M 556 4666 
L 1191 4666 
L 1191 1831 
Q 1191 1081 1462 751 
Q 1734 422 2344 422 
Q 2950 422 3222 751 
Q 3494 1081 3494 1831 
L 3494 4666 
L 4128 4666 
L 4128 1753 
Q 4128 841 3676 375 
Q 3225 -91 2344 -91 
Q 1459 -91 1007 375 
Q 556 841 556 1753 
L 556 4666 
z
" id="DejaVuSans-55" transform="scale(0.015625)"/>
       <path d="M 678 2906 
L 4684 2906 
L 4684 2381 
L 678 2381 
L 678 2906 
z
M 678 1631 
L 4684 1631 
L 4684 1100 
L 678 1100 
L 678 1631 
z
" id="DejaVuSans-3d" transform="scale(0.015625)"/>
       <path d="M 703 97 
L 703 672 
Q 941 559 1184 500 
Q 1428 441 1663 441 
Q 2288 441 2617 861 
Q 2947 1281 2994 2138 
Q 2813 1869 2534 1725 
Q 2256 1581 1919 1581 
Q 1219 1581 811 2004 
Q 403 2428 403 3163 
Q 403 3881 828 4315 
Q 1253 4750 1959 4750 
Q 2769 4750 3195 4129 
Q 3622 3509 3622 2328 
Q 3622 1225 3098 567 
Q 2575 -91 1691 -91 
Q 1453 -91 1209 -44 
Q 966 3 703 97 
z
M 1959 2075 
Q 2384 2075 2632 2365 
Q 2881 2656 2881 3163 
Q 2881 3666 2632 3958 
Q 2384 4250 1959 4250 
Q 1534 4250 1286 3958 
Q 1038 3666 1038 3163 
Q 1038 2656 1286 2365 
Q 1534 2075 1959 2075 
z
" id="DejaVuSans-39" transform="scale(0.015625)"/>
      </defs>
      <use xlink:href="#DejaVuSans-52"/>
      <use x="67.232422" xlink:href="#DejaVuSans-61"/>
      <use x="128.511719" xlink:href="#DejaVuSans-6e"/>
      <use x="191.890625" xlink:href="#DejaVuSans-64"/>
      <use x="255.367188" xlink:href="#DejaVuSans-6f"/>
      <use x="316.548828" xlink:href="#DejaVuSans-6d"/>
      <use x="413.960938" xlink:href="#DejaVuSans-46"/>
      <use x="467.855469" xlink:href="#DejaVuSans-6f"/>
      <use x="529.037109" xlink:href="#DejaVuSans-72"/>
      <use x="567.900391" xlink:href="#DejaVuSans-65"/>
      <use x="629.423828" xlink:href="#DejaVuSans-73"/>
      <use x="681.523438" xlink:href="#DejaVuSans-74"/>
      <use x="720.732422" xlink:href="#DejaVuSans-43"/>
      <use x="790.556641" xlink:href="#DejaVuSans-6c"/>
      <use x="818.339844" xlink:href="#DejaVuSans-61"/>
      <use x="879.619141" xlink:href="#DejaVuSans-73"/>
      <use x="931.71875" xlink:href="#DejaVuSans-73"/>
      <use x="983.818359" xlink:href="#DejaVuSans-69"/>
      <use x="1011.601562" xlink:href="#DejaVuSans-66"/>
      <use x="1046.806641" xlink:href="#DejaVuSans-69"/>
      <use x="1074.589844" xlink:href="#DejaVuSans-65"/>
      <use x="1136.113281" xlink:href="#DejaVuSans-72"/>
      <use x="1177.226562" xlink:href="#DejaVuSans-20"/>
      <use x="1209.013672" xlink:href="#DejaVuSans-28"/>
      <use x="1248.027344" xlink:href="#DejaVuSans-41"/>
      <use x="1316.435547" xlink:href="#DejaVuSans-55"/>
      <use x="1389.628906" xlink:href="#DejaVuSans-43"/>
      <use x="1459.453125" xlink:href="#DejaVuSans-20"/>
      <use x="1491.240234" xlink:href="#DejaVuSans-3d"/>
      <use x="1575.029297" xlink:href="#DejaVuSans-20"/>
      <use x="1606.816406" xlink:href="#DejaVuSans-30"/>
      <use x="1670.439453" xlink:href="#DejaVuSans-2e"/>
      <use x="1702.226562" xlink:href="#DejaVuSans-39"/>
      <use x="1765.849609" xlink:href="#DejaVuSans-39"/>
      <use x="1829.472656" xlink:href="#DejaVuSans-29"/>
     </g>
    </g>
    <g id="line2d_17">
     <path d="M 748.153125 498.060313 
L 768.153125 498.060313 
" style="fill:none;stroke:#ff7f0e;stroke-linecap:square;stroke-opacity:0.8;stroke-width:1.5;"/>
    </g>
    <g id="line2d_18"/>
    <g id="text_16">
     <!-- LogisticRegression (AUC = 0.89) -->
     <g transform="translate(776.153125 501.560313)scale(0.1 -0.1)">
      <defs>
       <path d="M 628 4666 
L 1259 4666 
L 1259 531 
L 3531 531 
L 3531 0 
L 628 0 
L 628 4666 
z
" id="DejaVuSans-4c" transform="scale(0.015625)"/>
       <path d="M 2906 1791 
Q 2906 2416 2648 2759 
Q 2391 3103 1925 3103 
Q 1463 3103 1205 2759 
Q 947 2416 947 1791 
Q 947 1169 1205 825 
Q 1463 481 1925 481 
Q 2391 481 2648 825 
Q 2906 1169 2906 1791 
z
M 3481 434 
Q 3481 -459 3084 -895 
Q 2688 -1331 1869 -1331 
Q 1566 -1331 1297 -1286 
Q 1028 -1241 775 -1147 
L 775 -588 
Q 1028 -725 1275 -790 
Q 1522 -856 1778 -856 
Q 2344 -856 2625 -561 
Q 2906 -266 2906 331 
L 2906 616 
Q 2728 306 2450 153 
Q 2172 0 1784 0 
Q 1141 0 747 490 
Q 353 981 353 1791 
Q 353 2603 747 3093 
Q 1141 3584 1784 3584 
Q 2172 3584 2450 3431 
Q 2728 3278 2906 2969 
L 2906 3500 
L 3481 3500 
L 3481 434 
z
" id="DejaVuSans-67" transform="scale(0.015625)"/>
       <path d="M 3122 3366 
L 3122 2828 
Q 2878 2963 2633 3030 
Q 2388 3097 2138 3097 
Q 1578 3097 1268 2742 
Q 959 2388 959 1747 
Q 959 1106 1268 751 
Q 1578 397 2138 397 
Q 2388 397 2633 464 
Q 2878 531 3122 666 
L 3122 134 
Q 2881 22 2623 -34 
Q 2366 -91 2075 -91 
Q 1284 -91 818 406 
Q 353 903 353 1747 
Q 353 2603 823 3093 
Q 1294 3584 2113 3584 
Q 2378 3584 2631 3529 
Q 2884 3475 3122 3366 
z
" id="DejaVuSans-63" transform="scale(0.015625)"/>
      </defs>
      <use xlink:href="#DejaVuSans-4c"/>
      <use x="53.962891" xlink:href="#DejaVuSans-6f"/>
      <use x="115.144531" xlink:href="#DejaVuSans-67"/>
      <use x="178.621094" xlink:href="#DejaVuSans-69"/>
      <use x="206.404297" xlink:href="#DejaVuSans-73"/>
      <use x="258.503906" xlink:href="#DejaVuSans-74"/>
      <use x="297.712891" xlink:href="#DejaVuSans-69"/>
      <use x="325.496094" xlink:href="#DejaVuSans-63"/>
      <use x="380.476562" xlink:href="#DejaVuSans-52"/>
      <use x="445.458984" xlink:href="#DejaVuSans-65"/>
      <use x="506.982422" xlink:href="#DejaVuSans-67"/>
      <use x="570.458984" xlink:href="#DejaVuSans-72"/>
      <use x="609.322266" xlink:href="#DejaVuSans-65"/>
      <use x="670.845703" xlink:href="#DejaVuSans-73"/>
      <use x="722.945312" xlink:href="#DejaVuSans-73"/>
      <use x="775.044922" xlink:href="#DejaVuSans-69"/>
      <use x="802.828125" xlink:href="#DejaVuSans-6f"/>
      <use x="864.009766" xlink:href="#DejaVuSans-6e"/>
      <use x="927.388672" xlink:href="#DejaVuSans-20"/>
      <use x="959.175781" xlink:href="#DejaVuSans-28"/>
      <use x="998.189453" xlink:href="#DejaVuSans-41"/>
      <use x="1066.597656" xlink:href="#DejaVuSans-55"/>
      <use x="1139.791016" xlink:href="#DejaVuSans-43"/>
      <use x="1209.615234" xlink:href="#DejaVuSans-20"/>
      <use x="1241.402344" xlink:href="#DejaVuSans-3d"/>
      <use x="1325.191406" xlink:href="#DejaVuSans-20"/>
      <use x="1356.978516" xlink:href="#DejaVuSans-30"/>
      <use x="1420.601562" xlink:href="#DejaVuSans-2e"/>
      <use x="1452.388672" xlink:href="#DejaVuSans-38"/>
      <use x="1516.011719" xlink:href="#DejaVuSans-39"/>
      <use x="1579.634766" xlink:href="#DejaVuSans-29"/>
     </g>
    </g>
   </g>
  </g>
 </g>
 <defs>
  <clipPath id="p3e1181a0a3">
   <rect height="443.52" width="837" x="135" y="69.12"/>
  </clipPath>
 </defs>
</svg>
